<?xml version="1.0" encoding="UTF-8"?>
<svg width="339px" height="410px" viewBox="0 0 339 410" version="1.1" xmlns="http://www.w3.org/2000/svg" xmlns:xlink="http://www.w3.org/1999/xlink">
    <title>Fill 16</title>
    <g id="Home" stroke="none" stroke-width="1" fill="none" fill-rule="evenodd">
        <g id="Homepage" transform="translate(-1001.000000, -1242.000000)" fill="#AF5B2D">
            <g id="Group-16" transform="translate(261.000000, 1242.000000)">
                <path d="M817.705051,157.362174 C825.627967,151.996949 822.974402,147.909937 827.477367,143.496109 C832.811483,138.238006 825.885228,136.001134 823.845131,139.414543 C817.812993,149.522228 795.528441,151.470412 782.271409,130.225574 C791.288134,130.36901 790.77721,125.572081 799.3046,125.737305 C803.59528,125.837165 804.088213,119.531437 797.600921,120.54275 C789.429739,121.837303 776,113.252943 776,90.8007023 C787.546157,101.66551 792.288393,93.4188595 802.719154,95.3615975 C811.111616,96.9266817 810.616883,99.686459 813.991859,101.912437 C816.960254,103.864254 820.337028,99.4195595 815.936607,96.9121566 C806.8875,91.7357584 809.506884,83.8776556 811.084631,77 C817.625894,88.0881317 850.343004,69.7574002 841.968532,99.127241 C840.579683,104.060343 845.683524,105.748891 846.037932,101.142605 C846.735955,91.8519596 856.421918,91.8610378 855.367688,82.1146663 C865.947767,86.2543323 876.592612,119.251828 853.629827,123.031996 C849.724139,120.976689 841.754448,115.858391 829.175649,118.062582 C839.946426,119.542331 849.256392,125.401411 853.993231,128.747641 C864.976292,136.97795 875.243341,147.352534 894,150.230328 C873.449711,150.938429 864.152338,140.204348 852.179811,131.282278 C852.393896,132.26091 852.606181,133.286748 852.760897,134.270827 C856.864478,160.036616 827.326249,161.20589 817.705051,157.362174 Z M780.166644,64.7231812 C786.997867,81.5603589 797.626841,87.5315785 803.824801,89 C789.727444,80.2599118 780.006509,64.291505 778.412436,51.1298967 C780.379551,55.5297427 782.732447,60.1969029 784.950684,62.398632 C789.263416,64.291505 791.840137,70.0405649 792.415168,73.0839724 C796.822525,73.0839724 806.268682,68.1513043 803.500891,58.5009031 C803.500891,58.5009031 799.803224,58.5587007 796.949905,58.5009031 C794.018339,58.4503301 794.031077,55.8512421 796.327562,55.471945 C802.884006,54.3882391 809.485944,43.5746602 795.461376,35.5967785 C792.524351,42.2615699 789.772937,39.684156 787.856774,44.5572203 C786.484706,48.0304977 783.09821,46.5115033 784.721399,43.6613567 C785.789574,41.7793208 787.654785,39.4150357 786.333669,36.9134812 C784.837861,34.0651408 774.76754,30.1240636 773.078842,28 C768.605975,31.9537204 763.008521,40.2278151 764.346014,44.2971308 C764.986555,46.2496077 765.967383,46.6903147 768.50407,47.9474136 C772.363693,49.8384804 769.339321,53.0101264 767.141101,50.6386166 C763.803738,47.0551624 759.481908,49.751784 756.870612,44.9852841 C747.331649,56.7019513 757.507513,70.389157 765.02113,64.6075859 C766.884521,63.1698694 768.50407,64.9597904 767.461372,66.7822225 C766.074747,69.1699879 762.904798,73.1182898 762.904798,73.1182898 C765.638014,78.236994 776.225135,81.0528233 781.029191,76.7414799 C778.270498,69.9845735 779.287721,65.416753 780.166644,64.7231812 Z M859.890885,49.0532967 C857.758775,49.0532967 855.762526,49.0860876 853.847793,49.1298087 C849.483942,69.8900631 820.121689,67.8460998 822.219381,56.8812024 C823.259169,51.4433857 829.131982,45.2805267 848.301046,43.7393566 C847.143512,-9.79535694 755.13309,36.3340886 740,0 C762.734054,30.6539839 853.994523,-15.3060422 854.389425,43.411448 C856.726232,43.3549749 859.206146,43.3440446 861.865397,43.411448 C878.418686,43.7994731 890.700509,48.0786796 900.980649,53.3015341 C898.35944,48.3774408 896.694691,44.1146297 895.743665,40.4639145 C894.803508,40.4967054 893.810818,40.4402322 892.761972,40.2689911 C881.427552,38.447277 877.878865,25.0012049 879.641434,18.2408237 C880.385951,24.1814335 883.66835,34.8748955 893.060866,35.6655195 C893.689449,35.7219926 894.283614,35.7365663 894.863287,35.7329229 C893.549965,23.6039501 901.297658,19.9095139 903.936982,20.2356007 C910.66119,21.0553721 909.293523,36.06994 899.665516,39.6860426 C901.330264,44.4061039 904.522089,50.0169835 910,56.4622081 C908.23562,58.3458605 906.911429,60.6721895 906.217633,63.300923 C896.200158,56.8338378 878.648744,49.0532967 859.890885,49.0532967 Z M905.907636,23.7313067 C905.253303,19.18997 896.128773,23.6865644 898.34666,36 C905.270422,34.0313417 906.371756,26.9937612 905.907636,23.7313067 Z M825.055914,58.7093532 C825.84558,63.7831589 844.580545,64.451745 848,50 C830.069291,50.9665236 824.359257,54.2331961 825.055914,58.7093532 Z M957.364177,98.9501377 C959.54339,99.2939461 961.60429,97.8243651 961.946441,95.635185 C962.30458,93.4651943 960.828854,91.4071412 958.649641,91.0521391 C956.475224,90.7003351 954.407929,92.1651188 954.051388,94.3511006 C953.701243,96.5274878 955.176969,98.5791444 957.364177,98.9501377 Z M951.195875,87.9332401 C953.903907,88.380867 956.495466,86.5303118 956.930425,83.7972402 C957.387224,81.0732666 955.54729,78.5148786 952.802859,78.0617928 C950.091187,77.6341817 947.521467,79.4701799 947.064669,82.1977927 C946.624249,84.9126682 948.480562,87.481974 951.195875,87.9332401 Z M948.922768,94.3928759 C949.428957,91.3916161 947.393508,88.5578851 944.383112,88.0731211 C941.381628,87.5830104 938.554814,89.6076131 938.073579,92.6195662 C937.579867,95.620826 939.624227,98.4331703 942.600758,98.9214988 C945.596896,99.4347784 948.427274,97.3745312 948.922768,94.3928759 Z M935.982641,73.0775025 C932.689654,72.5487753 929.616323,74.7824162 929.082073,78.0345528 C928.538516,81.2978205 930.751836,84.3904114 934.033654,84.9191386 C937.306166,85.458997 940.414865,83.2383424 940.913746,79.9695091 C941.474057,76.702531 939.243984,73.6117954 935.982641,73.0775025 Z M950.929203,69.3974854 C951.411448,66.3891071 949.378862,63.5538188 946.391206,63.0702959 C943.371525,62.5886543 940.547757,64.6337495 940.078698,67.6195508 C939.568197,70.5865379 941.595132,73.4368775 944.597858,73.9279261 C947.611888,74.4152119 950.433772,72.3795238 950.929203,69.3974854 Z M927.903471,69.7063272 C928.560221,65.6299235 925.795718,61.7923505 921.743043,61.0903333 C917.625236,60.4570704 913.769767,63.2199059 913.103971,67.2890723 C912.416463,71.3709039 915.213533,75.2211422 919.277063,75.8996382 C923.364113,76.5690875 927.208726,73.8207266 927.903471,69.7063272 Z M940.983704,55.0545586 C940.729043,51.4632477 937.633656,48.7670791 934.04688,49.0159287 C930.463691,49.2594074 927.743122,52.370922 928.019304,55.9622329 C928.277552,59.5428021 931.383699,62.2407609 934.957921,61.98296 C938.555457,61.7305298 941.234779,58.6154346 940.983704,55.0545586 Z M919.087443,89.4640448 C918.504601,92.9635619 920.896205,96.3303203 924.448179,96.9126881 C927.985981,97.496826 931.332455,95.0876997 931.913526,91.5492401 C932.492825,88.00193 930.101222,84.6688037 926.547476,84.0864359 C923.011445,83.5076084 919.68623,85.8954933 919.087443,89.4640448 Z M899.020843,82.5711252 C899.363478,86.960208 903.151998,90.2746305 907.568978,89.982025 C911.984183,89.662819 915.295143,85.8305733 914.979137,81.4237569 C914.68621,77.0399942 910.853308,73.7237983 906.434552,74.0181772 C902.019347,74.3444767 898.704837,78.1625354 899.020843,82.5711252 Z M1039.08487,270.399199 C1028.5543,279.709583 1028.25731,286.985415 1027.7267,293.043777 C1028.00015,292.897028 1028.28085,292.73941 1028.5543,292.590849 C1036.5894,288.411232 1043.53071,293.107187 1042.99829,301.564255 C1042.51296,309.140831 1036.2236,310.021322 1037.16528,314.171953 C1037.99106,317.759141 1037.65604,319.726659 1037.27394,321.808315 C1036.82664,324.179845 1035.31451,325.533193 1035.68937,328.100388 C1036.07148,330.830637 1036.3902,332.381462 1036.31052,334.323616 C1036.08959,339.563085 1032.26671,341.844029 1032.56732,344.188383 C1032.78464,345.960237 1033.31524,347.304527 1032.74661,351.435228 C1031.98964,356.941018 1028.98168,360.102454 1024.02154,362.419633 C1023.87847,362.483043 1023.74084,362.551888 1023.59778,362.622545 C1023.34606,367.217044 1023.18126,370.197309 1023.15953,370.554216 C1022.68507,379.029401 1022.46051,382.888346 1010.8452,382.888346 C1007.92235,382.888346 1005.73112,382.629271 1004.06326,382.145544 C1000.85428,385.080516 995.307399,388.836193 992.837288,390.285562 C989.425493,392.271198 988.539947,392.119014 985.023117,393.90355 C981.620376,395.642792 979.496153,399.09229 977.342955,402.097919 C976.51717,403.228427 975.881533,404.41691 975.014097,405.536547 C974.036193,406.804745 972.917037,408.857414 971.477346,409.515065 C969.726175,410.312218 967.18906,410.006039 965.445132,409.458902 C960.858042,408.03852 954.814962,403.505619 951.191287,400.449262 C945.897933,395.967089 942.161981,391.21497 940.823702,387.414 C939.432906,383.502516 942.071434,380.498699 944.264473,378.10724 C946.31988,375.846224 950.41983,371.432896 952.953324,365.450626 C960.613566,347.248364 957.413649,328.989938 967.000723,314.978164 C971.984407,307.691462 976.176715,302.888615 981.517153,297.138244 C984.69896,293.71411 987.775734,291.434977 992.799259,289.737404 C993.041924,289.650442 993.293643,289.558045 993.538119,289.471083 C992.764851,283.901882 990.769204,277.256526 982.589225,270.399199 C976.493628,265.299232 968.664969,259.556108 961.837756,251.972285 C943.61797,231.797069 934.641181,216.020688 923.931329,219.178501 C923.931329,214.486169 929.230116,210.643529 937.593,210.643529 C946.631361,210.643529 949.090606,218.086039 954.688197,218.169378 C958.612486,218.312503 960.523019,214.873875 960.523019,212.350161 C960.523019,198.177145 938.024001,202.626708 919.329751,203.061518 C886.787305,203.842366 864.900382,182.201476 860,163.173073 C874.172353,167.276599 888.587371,156.130952 900.213554,156.024061 C911.837926,155.911735 922.354008,163.140463 926.888581,164.27097 C936.62234,166.709534 940.202552,154.705135 927.636496,153.081842 C873.850007,146.159294 873.286807,113.648137 889.14876,94.5291488 C913.980258,124.322739 962.866365,90.2897447 971.421208,146.847744 C972.835545,156.179868 983.961911,153.931535 983.344383,147.117689 C982.34656,136.089803 970.787381,132.76169 970.787381,114.137299 C970.787381,108.174957 975.613515,99.4388861 986.180303,92 C989.09047,110.615332 1061.12391,121.884176 1027.84985,157.469807 C1017.99475,168.003095 1035.99361,175.655763 1037.67234,161.524416 C1038.57781,153.875372 1047.41878,144.911025 1065.10796,144.526942 C1060.86132,154.951528 1070.08078,169.358255 1070.08078,181.241269 C1070.08078,199.360192 1062.75375,202.996297 1062.75375,212.482416 C1062.75375,221.649675 1076.7939,219.894127 1073.86744,208.565497 C1078.268,210.371773 1082.51101,217.799789 1074.46323,232.228256 C1062.35172,253.928933 1042.72122,267.188847 1039.08487,270.399199 Z M1015.28239,366.93711 C1014.34037,366.888372 1009.91252,366.498468 1005.48646,366.85588 C1001.90175,367.144698 999.18895,367.790929 997.443337,368.318022 C997.375022,367.128452 997.322888,366.002062 997.26536,365.077844 C997.252776,364.817907 997.002889,359.60835 996.819518,356.315823 C996.718844,354.254384 995.129635,354.144272 994.254132,355.22373 C993.10537,356.622692 988.425832,363.588625 976.14002,370.51304 C973.743622,371.863265 971.293291,371.839798 971.947672,370.249493 C972.625423,368.583374 982.557982,359.106528 984.134607,344.337091 C985.351682,332.935995 981.756186,322.906785 982.513038,319.848923 C983.458653,316.056379 986.387185,315.596076 988.553472,312.379364 C990.586725,309.352188 990.94987,305.873735 991.918857,305.093926 C992.988517,304.227471 996.429407,304.897169 1001.08557,303.007215 C1006.68916,300.736382 1013.56375,293.517734 1013.56375,287.201642 C1013.56375,285.56982 1012.39521,284.239451 1010.58128,285.49942 C1000.52108,292.49604 989.817289,294.698278 987.313026,296.994382 C981.017311,302.770745 972.893287,314.077975 970.874416,317.509496 C968.04476,322.330954 965.020948,330.114602 963.721176,337.293538 C961.339159,350.441984 959.897365,366.724107 950.396266,377.455506 C947.284364,380.970062 945.675379,382.822108 946.054704,385.594762 C947.104589,393.237612 959.796691,401.032092 963.491064,402.459936 C970.498686,405.176632 975.046989,396.901992 975.428112,394.114897 C976.006987,389.990213 974.421373,387.926969 975.588112,386.881808 C976.204739,386.322223 977.470354,386.484683 978.207431,386.688661 C982.354836,387.795195 986.538196,386.324028 990.175041,384.347429 C992.751214,382.943051 998.07974,378.861689 998.743109,377.720858 C998.234346,376.571 997.925133,374.513171 997.727381,372.27122 C999.462208,371.738712 1002.19479,371.085261 1005.80466,370.794638 C1010.27746,370.426394 1014.93183,370.809078 1015.60059,370.883088 C1017.7507,371.099702 1018.05991,369.494956 1017.9916,368.754859 C1017.94486,368.043645 1017.24733,367.043612 1015.28239,366.93711 Z M1023.52289,346.292663 C1022.42808,346.62716 1009.99655,352.432408 1008.72292,352.997214 C1006.87635,353.817918 1004.66484,355.346 1005.04255,357.585115 C1005.33085,359.219212 1007.07524,359.977769 1008.57148,359.999703 C1010.68993,360.025293 1018.57801,358.389368 1020.96104,357.565008 C1023.74367,356.592593 1027.74154,356.053377 1027.99517,349.381728 C1028.09553,346.753281 1026.63214,345.353149 1023.52289,346.292663 Z M1024.50599,331.250872 C1018.78102,332.611188 1006.99945,338.061114 1005.57489,338.738672 C1001.77904,340.573798 999.643099,342.311882 999.222329,343.566492 C998.477067,345.774188 999.705502,347.397902 1001.41889,347.838055 C1003.54592,348.383914 1006.71061,347.479348 1010.75072,346.179684 C1012.22877,345.70314 1020.82781,343.05529 1022.63213,342.401992 C1027.3034,340.726292 1030.4253,340.242817 1029.95282,333.886592 C1029.72639,331.051591 1027.06805,330.625301 1024.50599,331.250872 Z M1016.06156,320.46359 C1015.08999,320.507635 1014.10208,320.209891 1013.12869,320.320884 C1012.24792,320.428354 1007.50629,322.889581 1004.55344,324.739466 C999.653816,327.820845 1002.57761,332.958239 1006.85071,331.844785 C1010.82416,330.812373 1020.84678,327.780324 1022.36678,327.299354 C1027.3899,325.703168 1030.38996,324.813461 1031.6412,321.517143 C1032.54558,319.177479 1031.7992,315.997439 1028.7283,317.304691 C1024.55872,319.073533 1020.61251,320.241603 1016.06156,320.46359 Z M1018.47191,314 C1023.81456,314 1038.26949,306.304999 1038.95826,301.577258 C1039.34547,298.806987 1036.9813,296.927603 1034.2411,297.00214 C1029.97443,297.128142 1017.4797,306.052995 1015.53438,309.595251 C1014.47144,311.554495 1014.77487,314 1018.47191,314 Z" id="Fill-16"></path>
            </g>
        </g>
    </g>
</svg>